<svg xmlns="http://www.w3.org/2000/svg" version="1.1" xmlns:xlink="http://www.w3.org/1999/xlink" xmlns:svgjs="http://svgjs.dev/svgjs" width="1500" height="382" viewBox="0 0 1500 382"><g transform="matrix(1,0,0,1,-0.9090909090909918,-1.807387655513054)"><svg viewBox="0 0 396 101" data-background-color="#222e38" preserveAspectRatio="xMidYMid meet" height="382" width="1500" xmlns="http://www.w3.org/2000/svg" xmlns:xlink="http://www.w3.org/1999/xlink"><g id="tight-bounds" transform="matrix(1,0,0,1,0.2400000000000091,0.47786951101261366)"><svg viewBox="0 0 395.52 100.04426097797477" height="100.04426097797477" width="395.52"><g><svg viewBox="0 0 395.52000000000004 100.04426097797479" height="100.04426097797477" width="395.52"><g><svg viewBox="0 0 395.52000000000004 100.04426097797479" height="100.04426097797479" width="395.52000000000004"><g id="textblocktransform"><svg viewBox="0 0 395.52000000000004 100.04426097797479" height="100.04426097797479" width="395.52000000000004" id="textblock"><g><svg viewBox="0 0 395.52000000000004 100.04426097797479" height="100.04426097797479" width="395.52000000000004"><g transform="matrix(1,0,0,1,0,0)"><svg width="395.52000000000004" viewBox="3.98 -38.57 176.23000000000002 44.58" height="100.04426097797479" data-palette-color="#fcfdff"><path d="M13.67-15.33L13.67 0 3.98 0 3.98-35.16 29.22-35.16 29.22-30.66 13.67-30.66 13.67-19.8 25.68-19.8 25.68-15.33 13.67-15.33ZM60.47-28.2L60.47 0 52.22 0 52.22-3.37Q50.75-1.37 48.69-0.4 46.63 0.56 44.16 0.56L44.16 0.56Q40.94 0.56 38.4-0.59 35.86-1.73 34.1-3.72 32.35-5.71 31.42-8.4 30.49-11.08 30.49-14.16L30.49-14.16Q30.49-17.24 31.42-19.92 32.35-22.61 34.1-24.6 35.86-26.59 38.4-27.73 40.94-28.88 44.16-28.88L44.16-28.88Q45.8-28.88 47.28-28.39 48.75-27.91 49.99-27.01 51.22-26.12 52.16-24.87 53.1-23.61 53.64-22.07L53.64-22.07 57.3-28.2 60.47-28.2ZM52.17-14.16L52.17-14.16Q52.17-15.26 52.06-16.48 51.95-17.7 51.68-18.9 51.41-20.09 50.94-21.18 50.46-22.27 49.72-23.11 48.97-23.95 47.92-24.44 46.87-24.93 45.48-24.93L45.48-24.93Q44.09-24.93 43.06-24.43 42.04-23.93 41.31-23.08 40.57-22.24 40.1-21.14 39.62-20.04 39.35-18.85 39.08-17.65 38.97-16.44 38.86-15.23 38.86-14.16L38.86-14.16Q38.86-13.09 38.97-11.87 39.08-10.64 39.35-9.45 39.62-8.25 40.1-7.15 40.57-6.05 41.31-5.21 42.04-4.37 43.06-3.87 44.09-3.37 45.48-3.37L45.48-3.37Q46.75-3.37 47.74-3.89 48.73-4.42 49.47-5.3 50.22-6.18 50.73-7.3 51.24-8.42 51.56-9.62 51.88-10.82 52.02-12 52.17-13.18 52.17-14.16ZM96.19-16.16L96.19-16.16Q96.19-13.31 95.49-10.21 94.79-7.1 93.55-4.13 92.3-1.15 90.57 1.48 88.84 4.1 86.76 6.01L86.76 6.01 83.66 4.32Q84.32 3.1 84.91 1.59 85.49 0.07 85.97-1.62 86.45-3.32 86.82-5.13 87.2-6.93 87.46-8.7 87.71-10.47 87.85-12.15 87.98-13.82 87.98-15.26L87.98-15.26Q87.98-16.21 87.91-17.3 87.84-18.38 87.6-19.47 87.37-20.56 86.98-21.56 86.59-22.56 85.94-23.32 85.3-24.07 84.38-24.54 83.47-25 82.22-25L82.22-25Q81-25 80.05-24.45 79.1-23.9 78.36-23.01 77.63-22.12 77.11-20.97 76.58-19.82 76.25-18.62 75.92-17.41 75.78-16.24 75.63-15.06 75.63-14.14L75.63-14.14 75.63 0 67.35 0 67.35-38.57 75.61-38.57 75.61-24.05Q77.19-26.37 79.5-27.62 81.81-28.88 84.61-28.88L84.61-28.88Q87.54-28.88 89.72-27.93 91.89-26.98 93.33-25.28 94.77-23.58 95.48-21.25 96.19-18.92 96.19-16.16ZM130.02-28.2L130.02 0 121.77 0 121.77-3.37Q120.31-1.37 118.24-0.4 116.18 0.56 113.71 0.56L113.71 0.56Q110.49 0.56 107.95-0.59 105.41-1.73 103.65-3.72 101.9-5.71 100.97-8.4 100.04-11.08 100.04-14.16L100.04-14.16Q100.04-17.24 100.97-19.92 101.9-22.61 103.65-24.6 105.41-26.59 107.95-27.73 110.49-28.88 113.71-28.88L113.71-28.88Q115.35-28.88 116.83-28.39 118.3-27.91 119.54-27.01 120.77-26.12 121.71-24.87 122.65-23.61 123.19-22.07L123.19-22.07 126.85-28.2 130.02-28.2ZM121.72-14.16L121.72-14.16Q121.72-15.26 121.61-16.48 121.5-17.7 121.23-18.9 120.96-20.09 120.49-21.18 120.01-22.27 119.27-23.11 118.52-23.95 117.47-24.44 116.42-24.93 115.03-24.93L115.03-24.93Q113.64-24.93 112.61-24.43 111.59-23.93 110.86-23.08 110.12-22.24 109.65-21.14 109.17-20.04 108.9-18.85 108.64-17.65 108.53-16.44 108.42-15.23 108.42-14.16L108.42-14.16Q108.42-13.09 108.53-11.87 108.64-10.64 108.9-9.45 109.17-8.25 109.65-7.15 110.12-6.05 110.86-5.21 111.59-4.37 112.61-3.87 113.64-3.37 115.03-3.37L115.03-3.37Q116.3-3.37 117.29-3.89 118.28-4.42 119.02-5.3 119.77-6.18 120.28-7.3 120.79-8.42 121.11-9.62 121.43-10.82 121.57-12 121.72-13.18 121.72-14.16ZM165.32-38.57L165.32 0 162.15 0 158.49-6.13Q157.95-4.59 157.01-3.34 156.07-2.1 154.84-1.21 153.6-0.32 152.13 0.17 150.65 0.66 149.01 0.66L149.01 0.66Q145.79 0.66 143.25-0.49 140.71-1.64 138.95-3.63 137.2-5.62 136.27-8.3 135.34-10.99 135.34-14.06L135.34-14.06Q135.34-17.14 136.27-19.82 137.2-22.51 138.95-24.49 140.71-26.46 143.25-27.61 145.79-28.76 149.01-28.76L149.01-28.76Q151.48-28.76 153.54-27.81 155.61-26.86 157.07-24.83L157.07-24.83 157.07-38.57 165.32-38.57ZM157.02-14.06L157.02-14.06Q157.02-15.04 156.87-16.21 156.73-17.38 156.41-18.58 156.09-19.78 155.58-20.9 155.07-22.02 154.32-22.9 153.58-23.78 152.59-24.3 151.6-24.83 150.33-24.83L150.33-24.83Q148.94-24.83 147.91-24.33 146.89-23.83 146.16-22.99 145.42-22.14 144.95-21.04 144.47-19.95 144.2-18.75 143.94-17.55 143.83-16.35 143.72-15.14 143.72-14.06L143.72-14.06Q143.72-12.99 143.83-11.78 143.94-10.57 144.2-9.38 144.47-8.18 144.95-7.07 145.42-5.96 146.16-5.11 146.89-4.27 147.91-3.77 148.94-3.27 150.33-3.27L150.33-3.27Q151.72-3.27 152.77-3.76 153.82-4.25 154.57-5.09 155.31-5.93 155.79-7.02 156.26-8.11 156.53-9.31 156.8-10.52 156.91-11.74 157.02-12.96 157.02-14.06ZM180.21-3.66L180.21-3.66Q180.21-2.73 179.87-1.92 179.53-1.1 178.92-0.5 178.31 0.1 177.5 0.45 176.7 0.81 175.77 0.81L175.77 0.81Q174.84 0.81 174.04 0.45 173.23 0.1 172.62-0.5 172.01-1.1 171.67-1.92 171.33-2.73 171.33-3.66L171.33-3.66Q171.33-4.57 171.67-5.38 172.01-6.2 172.62-6.8 173.23-7.4 174.04-7.75 174.84-8.11 175.77-8.11L175.77-8.11Q176.7-8.11 177.5-7.75 178.31-7.4 178.92-6.8 179.53-6.2 179.87-5.38 180.21-4.57 180.21-3.66Z" opacity="1" transform="matrix(1,0,0,1,0,0)" fill="#fcfdff" class="wordmark-text-0" data-fill-palette-color="primary" id="text-0"></path></svg></g></svg></g></svg></g></svg></g></svg></g><defs></defs></svg><rect width="395.52" height="100.04426097797477" fill="none" stroke="none" visibility="hidden"></rect></g></svg></g></svg>